PathFileType	3	(X/Y/Z)	D:\minhoCalibration\240510\subject2_KPNP\preferred\preferred05.trc
DataRate	CameraRate	NumFrames	NumMarkers	Units	OrigDataRate	OrigDataStartFrame	OrigNumFrames
200.0	200.0	18	10	mm	200.0	929	244	
Frame#	Time	Left_Ankle_Outer1			Left_Ankle_Inner1			Left_Knee_Outer1			Left_Knee_Inner1			Left_Wrist1			Right_Wrist1			Right_Knee_Inner1			Right_Knee_Outer1			Right_Ankle_Inner1			Right_Ankle_Outer1			
		X1	Y1	Z1	X2	Y2	Z2	X3	Y3	Z3	X4	Y4	Z4	X5	Y5	Z5	X6	Y6	Z6	X7	Y7	Z7	X8	Y8	Z8	X9	Y9	Z9	X10	Y10	Z10	
929	4.635	-562.83038	104.05956	-734.16095	-563.65619	107.78504	-679.07318	-395.2699	519.35461	-773.82385	-413.85712	502.38205	-679.47583	-452.90051	954.01361	-840.42841	-559.9826	1146.7269	-571.08185	-329.85623	864.98993	-240.09766	-387.0401	937.34918	-211.69263	-542.12469	557.68732	-45.858917	-588.41284	625.33588	10.072513
930	4.64	-562.97205	103.49136	-734.16614	-564.2392	105.9557	-680.43359	-395.4791	518.01593	-773.69879	-414.05652	501.62988	-679.41766	-451.22171	954.35205	-840.60425	-561.53064	1144.7118	-570.77814	-332.09015	858.77045	-240.67267	-390.81384	929.87567	-211.67273	-550.92151	545.6524	-61.311302	-597.49756	611.13202	-5.7504506
931	4.645	-563.08685	103.00111	-734.17023	-564.55298	106.08062	-679.60059	-395.35873	517.20612	-773.5968	-414.133	501.02802	-679.39368	-449.33469	954.78302	-840.66498	-563.2168	1142.6199	-570.617	-334.66702	852.39508	-241.16113	-394.96457	922.20898	-211.79727	-560.10449	532.8114	-77.275383	-606.74615	597.60846	-21.341902
932	4.65	-563.15747	102.47952	-734.26855	-564.87787	105.12743	-679.65723	-394.74481	516.64691	-774.04333	-414.22427	500.51987	-679.43378	-447.34671	955.229	-840.62817	-565.07587	1140.5248	-570.4527	-337.61734	845.44244	-241.87444	-399.34549	914.3183	-212.03401	-567.40106	521.71002	-94.127457	-615.77435	584.13757	-37.148781
933	4.655	-563.25769	102.02396	-734.44623	-564.69824	104.91368	-679.9024	-395.13693	515.47607	-773.70258	-414.37079	500.05917	-679.52283	-445.21671	955.76001	-840.47675	-567.284	1138.1831	-570.38708	-340.20999	838.89374	-242.81593	-403.94278	906.19495	-212.35751	-574.78711	510.22388	-111.53457	-624.62476	571.13348	-53.180313
934	4.66	-563.33984	101.55533	-734.71454	-564.91339	104.44942	-680.20758	-394.61588	515.21368	-773.93469	-414.50537	499.6102	-679.70148	-442.92081	956.37329	-840.24939	-569.52948	1136.0078	-570.35352	-344.25467	831.84802	-243.35262	-408.78104	897.8064	-212.78178	-581.63196	499.40363	-128.98221	-632.86761	558.39716	-69.781067
935	4.665	-563.35669	101.01991	-735.10602	-564.91284	104.47019	-680.11133	-394.92752	514.25244	-773.81104	-415.06894	499.23642	-679.95404	-440.65274	956.91193	-839.88324	-571.8363	1133.6272	-570.54712	-347.62415	824.4801	-244.40788	-413.62524	889.23657	-213.65468	-588.97705	488.05453	-146.32799	-640.85138	545.18561	-87.864845
936	4.67	-563.39246	100.50939	-735.54401	-565.01721	103.28572	-681.54474	-394.2518	514.22388	-774.11554	-414.72577	498.84433	-680.09399	-438.14044	957.508	-839.57684	-573.79126	1130.8132	-571.00385	-351.49551	816.90295	-245.58521	-418.75281	880.35431	-214.37799	-592.17908	478.78293	-166.79066	-648.60944	533.4519	-104.15109
937	4.675	-563.41516	99.984833	-736.10352	-565.32855	103.59082	-681.02966	-394.21323	513.76605	-774.12805	-414.82645	498.45462	-680.28754	-435.71027	958.13696	-839.14178	-576.15906	1128.429	-570.93878	-355.64136	809.0957	-246.98766	-424.04227	871.29596	-215.19832	-601.43622	468.27426	-181.53946	-656.263	521.15332	-121.98244
938	4.68	-563.38617	99.488037	-736.76337	-565.48364	102.75587	-682.16309	-394.10049	513.48792	-774.14886	-414.95911	498.05878	-680.44489	-433.50003	958.59155	-838.30896	-578.15442	1126.3628	-571.58337	-360.05576	800.98468	-248.63567	-429.51825	862.05139	-216.25221	-604.16827	458.9241	-203.15942	-664.2428	510.17368	-137.28963
939	4.685	-563.36053	98.891342	-737.39825	-565.70972	101.22882	-683.89221	-394.65536	512.68695	-773.75531	-415.1611	497.65402	-680.52783	-430.90472	959.41779	-838.23578	-580.104	1124.123	-572.18158	-364.6835	792.64966	-250.44698	-435.12015	852.69128	-217.47414	-612.60468	448.71408	-218.14655	-670.76575	499.05511	-155.1888
940	4.69	-563.34277	98.379601	-738.17755	-566.43561	101.50573	-683.65826	-394.61664	512.47778	-773.61639	-415.49127	497.22079	-680.52802	-428.70404	960.0318	-837.40082	-581.84772	1121.8119	-572.70941	-369.60443	784.20532	-252.47011	-440.8812	843.21271	-219.02907	-615.20251	440.51617	-238.82964	-677.44586	487.12842	-174.77118
941	4.695	-563.32782	97.955322	-738.86969	-566.72443	100.95028	-684.45599	-394.52853	512.21844	-773.36975	-415.77994	496.83905	-680.4718	-426.4404	960.74646	-836.88153	-583.70673	1119.8765	-573.38275	-374.81323	775.58636	-254.8576	-446.81854	833.64362	-220.82224	-624.01898	430.36603	-253.25363	-683.27252	477.34204	-190.87251
942	4.7	-563.22272	97.393631	-739.53235	-567.00262	100.51378	-685.06421	-393.94653	512.36548	-773.26917	-416.16425	496.47015	-680.27197	-424.056	961.55646	-836.91418	-585.45282	1117.785	-573.95087	-380.15073	766.91681	-257.43942	-452.85995	823.91223	-223.05531	-628.76117	421.42981	-271.24362	-690.33569	466.37744	-208.41611
943	4.705	-563.13708	97.008148	-740.11407	-567.00647	99.181503	-687.13727	-394.2131	511.62225	-772.54932	-416.64697	496.10513	-679.99225	-421.82104	962.36798	-836.51471	-587.12073	1115.7095	-574.38025	-385.65497	758.1355	-260.32062	-459.28061	813.99316	-225.81567	-630.22406	414.02911	-291.76712	-695.91895	455.60254	-228.43988
944	4.71	-562.97589	96.573929	-740.60907	-567.73285	99.100311	-687.77399	-393.81131	511.31039	-771.96918	-417.22244	495.7822	-679.65216	-419.8165	963.09711	-835.59454	-588.8642	1113.5814	-574.80804	-391.37958	749.36072	-263.43329	-465.69388	804.37811	-228.58408	-637.23322	404.39383	-306.93936	-702.25562	446.02789	-245.23369
945	4.715	-562.86798	96.313644	-741.1347	-567.90582	98.967247	-688.04004	-393.30902	511.10828	-771.26959	-417.84198	495.59921	-679.26508	-417.61829	963.93677	-835.20636	-590.69989	1111.384	-575.27258	-397.19589	740.46466	-266.70502	-472.21918	794.41772	-232.04184	-639.29858	396.97586	-325.98819	-707.79346	436.6915	-262.96268
946	4.72	-562.77014	96.142639	-741.66101	-568.3277	99.262177	-687.44452	-392.78613	511.02673	-770.38959	-418.45361	495.46982	-678.77948	-415.44208	964.82684	-834.745	-592.59766	1109.0792	-575.67804	-403.29333	731.60797	-270.27905	-478.93713	785.10565	-235.14221	-643.23322	389.09506	-343.12674	-712.9198	427.33475	-281.96524
